<svg xmlns="http://www.w3.org/2000/svg" width="1024" height="1024" viewBox="0 0 15 15"><defs><linearGradient id="lampGrad" gradientUnits="userSpaceOnUse" x1="0" y1="7.8" x2="0" y2="15"><stop offset="0%" stop-color="#fdf0c2"/><stop offset="50%" stop-color="#f7d774"/><stop offset="100%" stop-color="#f5b942"/></linearGradient><linearGradient id="starGrad" gradientUnits="userSpaceOnUse" x1="0" y1="0" x2="0" y2="6"><stop offset="0%" stop-color="#f5b942"/><stop offset="50%" stop-color="#f7d774"/><stop offset="100%" stop-color="#fdf0c2"/></linearGradient></defs>
<path fill="url(#starGrad)" d="m7.8 0l-.26.58l-.64.13l.49.42l-.07.63l.55-.33l.6.27l-.15-.62l.44-.47l-.65-.06zm3.55 2.29l-.41.42l-.59-.09l.28.52l-.27.51l.59-.1l.42.42l.08-.58l.53-.26l-.53-.26zm-6.28.7l-.48.63l-.8-.03l.46.64l-.28.74l.77-.24l.63.49l.01-.79l.67-.43l-.76-.26zm3.5 2.09l-.51.51l-.72-.12l.34.63l-.34.62l.72-.11l.5.51l.11-.7l.66-.31l-.66-.32zm3.87.77l-.64.6l-.86-.18l.38.78l-.44.75l.88-.12l.59.64l.16-.85l.81-.35l-.78-.41z" />
<path fill="url(#lampGrad)" d="M6.32 7.8c-.45 0-.82.32-.82.72c0 .09.02.17.05.25c-.53.06-1.11.29-1.64.6c-.06-.16-.12-.32-.21-.45c-.25-.37-.67-.67-1.08-.57c-1.6.32-2.99 2.17-2.53 3.52c.51.94 1.44 1.15 2.37 1.14c.25.44.67.8 1.36 1.02c-.25.28-.45.6-.57.96l5.52.01a2.6 2.6 0 0 0-.66-1.08c2.64-.97 4.27-3.63 6.68-3.33L15 9.1c-4.86.38-3.88 2.38-8.15-.04c.17-.13.28-.32.28-.54c0-.4-.36-.72-.81-.72M2.64 9.33c.11 0 .13 0 .22.12c.06.1.13.29.16.58c-.65.65-.91 1.2-.86 1.99c-.32-.01-.56-.06-.72-.13c-.74-.37-.29-1.29.03-1.72c.38-.5.95-.83 1.17-.84" />
</svg>